# xmcd
#
# Track frame offsets:
#	150
#	21405
#	54243
#	81003
#	107955
#	133650
#	164103
#	190325
#	213613
#	245220
#
# Disc length: 3761 seconds
#
# Revision: 0
# Processed by: cddbd v1.5.2PL0 Copyright (c) Steve Scherf et al.
# Submitted via: audiograbber 1.83.01
#
DISCID=970eaf0a
DTITLE=Psychograss - Psychograss
DYEAR=1993
DGENRE=Bluegrass
TTITLE0=Love on Three Levels
TTITLE1=Little Jaco
TTITLE2=Pleasant Pheasant
TTITLE3=A Whiter Shade Of Pale
TTITLE4=A Real Dragon
TTITLE5=Frogs On Ice
TTITLE6=Song For Kaila
TTITLE7=Flanders Rock
TTITLE8=Dawn Chorus
TTITLE9=Wedges
EXTD=
EXTT0=
EXTT1=
EXTT2=
EXTT3=
EXTT4=
EXTT5=
EXTT6=
EXTT7=
EXTT8=
EXTT9=
PLAYORDER=
